<svg width="17" height="16" viewBox="0 0 17 16" fill="none" xmlns="http://www.w3.org/2000/svg">
<path d="M16.5 8C16.5 12.4182 12.9182 16 8.5 16C4.08178 16 0.5 12.4182 0.5 8C0.5 3.58178 4.08178 0 8.5 0C12.9182 0 16.5 3.58178 16.5 8Z" fill="#FFCC4D"/>
<path d="M5.83334 8.55553C6.44699 8.55553 6.94445 8.00832 6.94445 7.33331C6.94445 6.65829 6.44699 6.11108 5.83334 6.11108C5.21969 6.11108 4.72223 6.65829 4.72223 7.33331C4.72223 8.00832 5.21969 8.55553 5.83334 8.55553Z" fill="#664500"/>
<path d="M11.1667 8.88888C11.7803 8.88888 12.2778 8.19244 12.2778 7.33333C12.2778 6.47422 11.7803 5.77777 11.1667 5.77777C10.553 5.77777 10.0555 6.47422 10.0555 7.33333C10.0555 8.19244 10.553 8.88888 11.1667 8.88888Z" fill="#664500"/>
<path d="M3.65644 5.58177C3.76711 5.65999 3.91156 5.68666 4.04978 5.64177C5.91067 5.03955 7.17289 5.88799 7.22578 5.92444C7.42711 6.06311 7.70356 6.01377 7.84356 5.81333C7.98356 5.61288 7.936 5.33733 7.73644 5.19644C7.66978 5.14933 6.076 4.05199 3.77644 4.79599C3.54267 4.87155 3.41467 5.12222 3.49067 5.35555C3.52089 5.45066 3.58089 5.52799 3.65644 5.58177ZM11.6111 11.5555H5.38889C5.14356 11.5555 4.94444 11.3569 4.94444 11.1111C4.94444 10.8653 5.14356 10.6667 5.38889 10.6667H11.6111C11.8569 10.6667 12.0556 10.8653 12.0556 11.1111C12.0556 11.3569 11.8569 11.5555 11.6111 11.5555ZM13.8338 4.62577C13.6702 4.62577 13.5089 4.55422 13.3987 4.41644C12.7787 3.63822 11.488 2.95555 11.0369 2.95555C10.7516 2.95555 10.1813 3.36044 9.87956 3.65244C9.65911 3.86666 9.30711 3.85999 9.09422 3.63999C8.88089 3.41999 8.88578 3.06888 9.10489 2.85511C9.27867 2.68622 10.1876 1.84399 11.0369 1.84399C11.928 1.84399 13.4982 2.75777 14.268 3.72355C14.4596 3.96355 14.4196 4.31288 14.18 4.50399C14.0773 4.58622 13.9547 4.62577 13.8338 4.62577Z" fill="#664500"/>
</svg>
