<svg width="20" height="20" viewBox="0 0 20 20" fill="none" xmlns="http://www.w3.org/2000/svg">
<g clip-path="url(#clip0_4_53)">
<path d="M10.0001 0C4.47883 0 0.00166702 4.58456 0.00166702 10.2401C0.00166702 14.7644 2.86651 18.6029 6.83923 19.9569C7.33891 20.0517 7.5224 19.7347 7.5224 19.4642C7.5224 19.2201 7.51302 18.4134 7.5088 17.5578C4.72723 18.1772 4.14029 16.3496 4.14029 16.3496C3.68544 15.166 3.03008 14.8512 3.03008 14.8512C2.12296 14.2157 3.09851 14.2288 3.09851 14.2288C4.10248 14.301 4.63115 15.284 4.63115 15.284C5.52296 16.8494 6.97022 16.3969 7.54075 16.1352C7.6305 15.4734 7.8896 15.0216 8.17557 14.7659C5.95476 14.507 3.62022 13.629 3.62022 9.70528C3.62022 8.58728 4.01078 7.67376 4.65036 6.95664C4.54655 6.69872 4.20434 5.65728 4.74722 4.24672C4.74722 4.24672 5.58685 3.97152 7.49756 5.2964C8.29508 5.06952 9.15041 4.95576 10.0001 4.95184C10.8498 4.95576 11.7059 5.06944 12.5049 5.2964C14.4132 3.9716 15.2517 4.2468 15.2517 4.2468C15.7959 5.6572 15.4535 6.6988 15.3497 6.95664C15.9908 7.67376 16.3787 8.58728 16.3787 9.70528C16.3787 13.6383 14.0397 14.5043 11.8133 14.7578C12.1719 15.0756 12.4914 15.6988 12.4914 16.6542C12.4914 18.0242 12.4799 19.127 12.4799 19.4642C12.4799 19.7368 12.6598 20.0561 13.1666 19.9554C17.1372 18.6 19.9984 14.763 19.9984 10.2402C19.9984 4.58456 15.5219 0 10.0001 0ZM3.74645 14.5872C3.72442 14.6381 3.64623 14.6534 3.57507 14.6184C3.5025 14.585 3.46181 14.5157 3.48524 14.4646C3.5068 14.4122 3.58515 14.3976 3.65748 14.4327C3.73012 14.4662 3.77152 14.5362 3.74645 14.5872ZM4.23824 15.0366C4.19059 15.0819 4.09733 15.0609 4.03406 14.9894C3.96868 14.918 3.95641 14.8225 4.00477 14.7766C4.05398 14.7313 4.14435 14.7525 4.20989 14.8238C4.27535 14.8961 4.288 14.9909 4.23824 15.0366ZM4.57569 15.6117C4.51437 15.6553 4.41423 15.6144 4.35229 15.5234C4.29105 15.4323 4.29105 15.3231 4.35361 15.2794C4.41571 15.2356 4.51437 15.275 4.57709 15.3654C4.63818 15.4579 4.63818 15.5671 4.57561 15.6118M5.14614 16.2778C5.09139 16.3397 4.97461 16.323 4.88915 16.2386C4.80174 16.156 4.77745 16.0389 4.83244 15.977C4.8879 15.9149 5.00531 15.9323 5.09138 16.0162C5.17809 16.0986 5.20465 16.2166 5.14614 16.2778ZM5.88368 16.5026C5.85946 16.5828 5.74698 16.6193 5.6338 16.5852C5.52069 16.5501 5.44672 16.4562 5.46953 16.3751C5.49304 16.2943 5.60599 16.2564 5.72003 16.2929C5.83298 16.3278 5.90719 16.421 5.88368 16.5026M6.72292 16.5981C6.72573 16.6825 6.62973 16.7525 6.51084 16.7541C6.39133 16.7568 6.29455 16.6885 6.29322 16.6053C6.29322 16.5201 6.38711 16.4507 6.5067 16.4486C6.62559 16.4462 6.72292 16.5141 6.72292 16.5981ZM7.54739 16.5657C7.56161 16.6481 7.47904 16.7327 7.36094 16.7553C7.24494 16.777 7.13746 16.7261 7.12269 16.6444C7.10832 16.5599 7.19245 16.4753 7.30829 16.4534C7.42655 16.4324 7.53232 16.4819 7.54739 16.5657Z" fill="#161614"/>
</g>
<defs>
<clipPath id="clip0_4_53">
<rect width="20" height="20" fill="white"/>
</clipPath>
</defs>
</svg>
