<svg width="84" height="21" viewBox="0 0 84 21" fill="none" xmlns="http://www.w3.org/2000/svg">
<path d="M0 17.0488C0 20.3671 1.40561 20.9435 3.28661 19.5221L11.7665 12.9888C12.8381 12.1902 13.3083 11.3322 13.3083 10.5H0V17.0488Z" fill="#009F9F"/>
<path d="M18.1984 17.0488C18.1984 20.3671 16.7928 20.9435 14.9118 19.5221L6.43188 12.9888C5.36033 12.1902 4.89008 11.3322 4.89008 10.5H18.1779L18.1984 17.0488Z" fill="#EF4923"/>
<path d="M18.1984 3.9512C18.1984 0.632859 16.7928 0.0565417 14.9118 1.47795L6.43188 8.01124C5.36033 8.80982 4.89008 9.66783 4.89008 10.5H18.1779L18.1984 3.9512Z" fill="#F8971D"/>
<path d="M0 3.9512C0 0.632859 1.40561 0.0565417 3.28661 1.47795L11.7665 8.01124C12.8381 8.80982 13.3083 9.66783 13.3083 10.5H0V3.9512Z" fill="#082F4D"/>
<path d="M23.6667 3.49376C23.6667 2.51687 23.9031 2.27911 24.8719 2.27911H25.2804C26.2492 2.27911 26.4856 2.51687 26.4856 3.49376V7.59258C27.1743 6.83278 28.3589 6.35725 29.7799 6.35725C31.5016 6.35725 33.4391 7.16099 33.4391 10.0891V16.2502C33.4391 17.2271 33.2027 17.4649 32.234 17.4649H31.8254C30.8566 17.4649 30.6202 17.2271 30.6202 16.2502V10.5879C30.6202 9.37321 29.9315 9.03725 28.8214 9.03725C27.5726 9.03725 26.5087 9.53603 26.5087 11.663V16.2632C26.5087 17.24 26.2723 17.4778 25.3036 17.4778H24.895C23.9262 17.4778 23.6898 17.24 23.6898 16.2632L23.6667 3.49376Z" fill="#082F4D"/>
<path d="M38.3729 13.7175C38.3729 14.8236 38.6967 15.431 40.4621 15.431C42.2274 15.431 42.5178 14.8236 42.5178 13.7175V8.20765C42.5178 7.23075 42.7542 6.99299 43.723 6.99299H44.1315C45.1003 6.99299 45.3367 7.23075 45.3367 8.20765V13.7175C45.3367 16.625 43.872 18.111 40.4723 18.111C37.2217 18.111 35.5643 16.5603 35.5643 13.7175V8.20765C35.5643 7.23075 35.8007 6.99299 36.7694 6.99299H37.178C38.1468 6.99299 38.3832 7.23075 38.3832 8.20765L38.3729 13.7175Z" fill="#082F4D"/>
<path d="M54.8856 11.5467C54.8856 10.1589 54.5207 9.39906 52.5729 9.39906C50.6251 9.39906 50.2268 10.1589 50.2268 11.5467V13.2808C50.2268 14.6686 50.6354 15.4284 52.5729 15.4284C54.5541 15.4284 54.8856 14.6686 54.8856 13.2808V11.5467ZM47.4336 3.8685C47.4336 2.89161 47.67 2.65385 48.6388 2.65385H49.0268C49.9955 2.65385 50.232 2.89161 50.232 3.8685V7.96732C50.7921 7.20751 51.6967 6.73199 53.1819 6.73199C56.1756 6.73199 57.702 8.51004 57.702 11.6139V13.3428C57.702 16.749 55.785 18.0929 52.5626 18.0929C49.7206 18.0929 47.4387 16.7464 47.4387 13.3428L47.4336 3.8685Z" fill="#082F4D"/>
<path d="M65.4598 15.2785C64.9622 15.3694 64.4571 15.4126 63.9514 15.4077C63.1548 15.4077 62.6255 15.0588 62.5972 14.038C62.6091 13.9828 62.6151 13.9265 62.6152 13.87V9.66008H65.0487C66.0174 9.66008 66.2538 9.42232 66.2538 8.44543V8.20766C66.2538 7.23077 66.0174 6.993 65.0487 6.993H62.6152V5.36485C62.6152 4.38796 62.3788 4.15019 61.41 4.15019H61.0143C60.0455 4.15019 59.8091 4.38796 59.8091 5.36485V6.85603L59.7886 6.99042V13.9321C59.7886 14.1302 59.7954 14.3197 59.8091 14.5006C59.8052 14.7003 59.8294 14.8996 59.8811 15.0924C60.2742 17.3434 61.8751 18.0748 63.9437 18.0748C64.4497 18.0876 64.9555 18.0443 65.4521 17.9456C66.4003 17.7518 66.6367 17.3822 66.6367 16.395V16.1572C66.6367 15.1803 66.4003 15.095 65.4521 15.2682" fill="#082F4D"/>
<path d="M70.6069 11.1564H74.8494V10.8308C74.8494 9.74795 74.1376 9.18197 72.7191 9.18197C71.3007 9.18197 70.6094 9.74536 70.6094 10.8308L70.6069 11.1564ZM77.4756 12.2625C77.3471 13.2601 77.067 13.4539 76.0751 13.4539H70.6069V13.7796C70.6069 14.9064 71.424 15.4284 73.4335 15.4284C74.3099 15.4149 75.1828 15.3136 76.0392 15.126C76.9874 14.9322 77.1801 15.1906 77.1801 16.1598V16.3975C77.1801 17.3744 76.9874 17.5683 76.0392 17.8086C75.1773 18.0028 74.2962 18.0973 73.413 18.0903C69.6021 18.0903 67.7931 16.7025 67.7931 13.3402V11.6035C67.7931 8.80465 69.0625 6.72165 72.8091 6.72165C75.9518 6.72165 77.5244 8.32655 77.5244 11.4071C77.5264 11.6894 77.5118 11.9716 77.4807 12.2522" fill="#082F4D"/>
<path d="M79.4131 3.8685C79.4131 2.89161 79.6495 2.65385 80.6183 2.65385H81.0063C81.9751 2.65385 82.2115 2.89161 82.2115 3.8685V13.9346C82.2115 15.0614 82.5121 15.3871 83.1597 15.3871H83.2676C83.8278 15.3871 84 15.5163 84 16.3846V16.7981C84 17.6665 83.8278 17.9042 83.2676 18.0128C83.0553 18.054 82.8386 18.0687 82.6226 18.0567C80.793 18.0567 79.4157 17.0359 79.4157 14.5626L79.4131 3.8685Z" fill="#082F4D"/>
</svg>
