<svg width="25" height="24" viewBox="0 0 25 24" fill="none" xmlns="http://www.w3.org/2000/svg">
<g clip-path="url(#clip0_91_121)">
<path d="M20.1721 0H4.82787C2.43765 0 0.5 1.93765 0.5 4.32787V19.6721C0.5 22.0623 2.43765 24 4.82787 24H20.1721C22.5623 24 24.5 22.0623 24.5 19.6721V4.32787C24.5 1.93765 22.5623 0 20.1721 0Z" fill="url(#paint0_linear_91_121)"/>
<path d="M10.3448 13.8767C9.63302 13.3479 9.28246 12.7833 9.23643 12.2278H6.50751V16.3377C6.50751 18.5256 7.43643 18.9073 8.67853 17.9697L12.1802 15.2817L10.3448 13.8767Z" fill="white"/>
<path d="M18.5209 12.2282H9.75494C9.8173 12.5219 9.93813 12.8001 10.1102 13.0461C10.2823 13.2921 10.5021 13.501 10.7567 13.6603L16.3494 17.9685C17.5919 18.9057 18.5271 18.5245 18.5205 16.3365L18.5209 12.2282Z" fill="white"/>
<path d="M16.3562 6.06572L12.8258 8.77732L14.6171 10.1544C14.9066 10.334 15.1549 10.5726 15.3459 10.8547C15.5369 11.1368 15.6662 11.456 15.7255 11.7915H18.5228V7.69103C18.5228 5.50309 17.5939 5.12145 16.3518 6.05903" fill="white"/>
<path d="M14.2785 10.3758L8.68607 6.06569C7.44358 5.12851 6.50836 5.50975 6.51505 7.69769V11.7993H15.2857C15.2218 11.5076 15.1005 11.2314 14.9287 10.987C14.757 10.7426 14.5384 10.5349 14.2855 10.3758" fill="white"/>
</g>
<defs>
<linearGradient id="paint0_linear_91_121" x1="12.5" y1="-1.08" x2="12.5" y2="43.08" gradientUnits="userSpaceOnUse">
<stop stop-color="#3C3D3D"/>
<stop offset="1"/>
</linearGradient>
<clipPath id="clip0_91_121">
<rect width="24" height="24" fill="white" transform="translate(0.5)"/>
</clipPath>
</defs>
</svg>
