<svg width="16" height="16" viewBox="0 0 16 16" fill="none" xmlns="http://www.w3.org/2000/svg">
<path d="M2.66683 11.9995C2.57881 12.0015 2.49131 11.9855 2.40969 11.9525C2.32807 11.9195 2.25405 11.8701 2.19217 11.8075C2.12954 11.7456 2.0802 11.6716 2.04719 11.59C2.01417 11.5084 1.99817 11.4209 2.00017 11.3328C2.00017 11.1444 2.06417 10.9862 2.19217 10.8582C2.25405 10.7956 2.32807 10.7462 2.40969 10.7132C2.49131 10.6802 2.57881 10.6642 2.66683 10.6662H10.0002C10.1891 10.6662 10.3475 10.7302 10.4755 10.8582C10.538 10.9201 10.5872 10.9942 10.6201 11.0758C10.653 11.1574 10.6689 11.2449 10.6668 11.3328C10.6668 11.5213 10.6031 11.6795 10.4755 11.8075C10.4135 11.8702 10.3394 11.9196 10.2577 11.9526C10.1759 11.9856 10.0883 12.0016 10.0002 11.9995H2.66683Z" fill="#010508"/>
<path opacity="0.3" d="M11.6 7.99956L13.5333 9.93289C13.594 9.9941 13.6416 10.0671 13.6731 10.1473C13.7047 10.2276 13.7195 10.3134 13.7167 10.3996C13.7195 10.4857 13.7047 10.5716 13.6731 10.6518C13.6416 10.732 13.594 10.805 13.5333 10.8662C13.4721 10.9269 13.3992 10.9745 13.3189 11.006C13.2387 11.0376 13.1528 11.0524 13.0667 11.0496C12.9805 11.0524 12.8947 11.0376 12.8144 11.006C12.7342 10.9745 12.6612 10.9269 12.6 10.8662L10.2 8.46622C10.1366 8.40619 10.0861 8.33383 10.0517 8.25357C10.0174 8.17332 9.99974 8.08687 10 7.99956C10 7.82178 10.0667 7.66622 10.2 7.53289L12.6 5.13289C12.6612 5.07218 12.7342 5.0246 12.8144 4.99308C12.8947 4.96155 12.9805 4.94674 13.0667 4.94956C13.2556 4.94956 13.4111 5.01067 13.5333 5.13289C13.594 5.1941 13.6416 5.26706 13.6731 5.34731C13.7047 5.42755 13.7195 5.51339 13.7167 5.59956C13.7195 5.68572 13.7047 5.77156 13.6731 5.8518C13.6416 5.93205 13.594 6.00501 13.5333 6.06622L11.6 7.99956Z" fill="#010508"/>
<path d="M2.66685 5.33353C2.57887 5.33561 2.4914 5.31972 2.40978 5.28682C2.32816 5.25392 2.25412 5.20471 2.19218 5.1422C2.12947 5.08024 2.08008 5.00611 2.04707 4.92437C2.01405 4.84263 1.99809 4.755 2.00018 4.66686C2.00018 4.47797 2.06418 4.31953 2.19218 4.19153C2.25412 4.12902 2.32816 4.07981 2.40978 4.04691C2.4914 4.01401 2.57887 3.99811 2.66685 4.0002H10.0002C10.0883 3.99802 10.1759 4.01387 10.2576 4.04678C10.3393 4.07968 10.4135 4.12894 10.4755 4.19153C10.5381 4.25355 10.5874 4.3277 10.6203 4.40944C10.6532 4.49118 10.669 4.57878 10.6668 4.66686C10.669 4.75495 10.6532 4.84255 10.6203 4.92429C10.5874 5.00603 10.5381 5.08018 10.4755 5.1422C10.4135 5.20479 10.3393 5.25405 10.2576 5.28695C10.1759 5.31985 10.0883 5.3357 10.0002 5.33353H2.66685Z" fill="#010508"/>
<path opacity="0.3" d="M2.66683 8.66751C2.57881 8.66951 2.49131 8.65351 2.40969 8.6205C2.32807 8.58748 2.25405 8.53815 2.19217 8.47551C2.12954 8.41363 2.0802 8.33961 2.04719 8.25799C2.01417 8.17637 1.99817 8.08887 2.00017 8.00085C2.00017 7.81196 2.06417 7.65351 2.19217 7.52551C2.2541 7.463 2.32815 7.41379 2.40977 7.38089C2.49138 7.34799 2.57886 7.3321 2.66683 7.33418H8.00017C8.08825 7.33201 8.17585 7.34786 8.25759 7.38076C8.33933 7.41366 8.41348 7.46292 8.4755 7.52551C8.53809 7.58753 8.58735 7.66168 8.62025 7.74342C8.65316 7.82516 8.66901 7.91276 8.66683 8.00085C8.66683 8.18929 8.60306 8.34751 8.4755 8.47551C8.41354 8.53823 8.33941 8.58761 8.25767 8.62063C8.17593 8.65365 8.0883 8.6696 8.00017 8.66751H2.66683Z" fill="#010508"/>
</svg>
