<svg width="16" height="16" viewBox="0 0 16 16" fill="none" xmlns="http://www.w3.org/2000/svg">
<path d="M13.7368 2.77939C13.4461 2.48661 13.1002 2.2545 12.7191 2.09657C12.338 1.93863 11.9293 1.85801 11.5168 1.85939H4.47009C4.05717 1.85939 3.64832 1.94083 3.26692 2.09905C2.88552 2.25726 2.53907 2.48915 2.24741 2.78143C1.95575 3.07372 1.72459 3.42065 1.56719 3.80239C1.40978 4.18412 1.32921 4.59315 1.33009 5.00606V9.40606C1.32921 9.81897 1.40978 10.228 1.56719 10.6097C1.72459 10.9915 1.95575 11.3384 2.24741 11.6307C2.53907 11.923 2.88552 12.1549 3.26692 12.3131C3.64832 12.4713 4.05717 12.5527 4.47009 12.5527H6.02342L7.32342 13.8461C7.40809 13.9414 7.51275 14.0161 7.63009 14.0661C7.74675 14.1141 7.87075 14.1394 7.99675 14.1394C8.12386 14.1376 8.24609 14.1132 8.36342 14.0661C8.47217 14.0142 8.57135 13.9444 8.65675 13.8594L9.99009 12.5261H11.5434C11.9558 12.5263 12.3642 12.4452 12.7451 12.2873C13.1261 12.1295 13.4721 11.8979 13.7634 11.6061C14.0489 11.3119 14.2752 10.9656 14.4301 10.5861C14.5861 10.2027 14.6681 9.79273 14.6701 9.37939V4.97939C14.6671 4.56929 14.5831 4.16382 14.4229 3.78627C14.2627 3.40873 14.0296 3.06655 13.7368 2.77939ZM4.91009 8.22606C4.69121 8.22606 4.47724 8.16115 4.29525 8.03955C4.11326 7.91795 3.97142 7.74511 3.88766 7.5429C3.8039 7.34068 3.78198 7.11816 3.82468 6.90349C3.86738 6.68882 3.97278 6.49163 4.12755 6.33686C4.28232 6.18209 4.47951 6.07669 4.69419 6.03399C4.90886 5.99129 5.13137 6.01321 5.33359 6.09697C5.53581 6.18073 5.70864 6.32257 5.83024 6.50456C5.95185 6.68655 6.01675 6.90051 6.01675 7.11939C6.015 7.41236 5.89785 7.69283 5.69068 7.89999C5.48352 8.10715 5.20305 8.22431 4.91009 8.22606ZM7.99675 8.22606C7.85142 8.22606 7.70752 8.19743 7.57325 8.14182C7.43898 8.0862 7.31698 8.00469 7.21422 7.90192C7.11146 7.79916 7.02994 7.67716 6.97433 7.5429C6.91871 7.40863 6.89009 7.26472 6.89009 7.11939C6.89009 6.97406 6.91871 6.83016 6.97433 6.69589C7.02994 6.56162 7.11146 6.43962 7.21422 6.33686C7.31698 6.2341 7.43898 6.15258 7.57325 6.09697C7.70752 6.04135 7.85142 6.01273 7.99675 6.01273C8.29026 6.01273 8.57174 6.12932 8.77928 6.33686C8.98682 6.5444 9.10342 6.82589 9.10342 7.11939C9.10342 7.4129 8.98682 7.69438 8.77928 7.90192C8.57174 8.10946 8.29026 8.22606 7.99675 8.22606ZM11.0768 8.22606C10.8579 8.22606 10.6439 8.16115 10.4619 8.03955C10.2799 7.91795 10.1381 7.74511 10.0543 7.5429C9.97056 7.34068 9.94865 7.11816 9.99135 6.90349C10.0341 6.68882 10.1395 6.49163 10.2942 6.33686C10.449 6.18209 10.6462 6.07669 10.8609 6.03399C11.0755 5.99129 11.298 6.01321 11.5003 6.09697C11.7025 6.18073 11.8753 6.32257 11.9969 6.50456C12.1185 6.68655 12.1834 6.90051 12.1834 7.11939C12.1817 7.41236 12.0645 7.69283 11.8574 7.89999C11.6502 8.10715 11.3697 8.22431 11.0768 8.22606Z" fill="#A1B3C2"/>
</svg>
